<?xml version="1.0" standalone="no"?>
<!DOCTYPE svg PUBLIC "-//W3C//DTD SVG 20010904//EN"
 "http://www.w3.org/TR/2001/REC-SVG-20010904/DTD/svg10.dtd">
<svg version="1.0" xmlns="http://www.w3.org/2000/svg"
 width="1024.000000pt" height="1024.000000pt" viewBox="0 0 1024.000000 1024.000000"
 preserveAspectRatio="xMidYMid meet">

<g transform="translate(0.000000,1024.000000) scale(0.100000,-0.100000)"
fill="#000000" stroke="none">
<path d="M4500 9856 c-157 -46 -377 -110 -490 -144 -113 -33 -306 -89 -430
-125 -124 -36 -286 -84 -360 -107 -165 -50 -378 -113 -780 -230 -387 -112
-379 -109 -342 -129 45 -24 1271 -418 1405 -452 26 -6 50 -15 52 -19 3 -5 -35
-94 -85 -199 -49 -104 -90 -192 -90 -195 0 -5 -57 -129 -111 -243 -21 -44 -39
-87 -39 -93 0 -20 -56 -5 -145 39 -58 29 -107 65 -178 130 -55 50 -103 91
-109 91 -6 0 -9 -19 -6 -45 2 -25 1 -45 -1 -45 -2 0 -23 18 -47 40 -68 62 -81
52 -40 -30 13 -26 24 -64 23 -83 -1 -27 9 -48 42 -91 24 -31 51 -56 60 -56 9
0 37 -21 61 -46 25 -25 66 -58 92 -73 27 -15 45 -31 41 -34 -3 -4 -27 -7 -52
-7 l-46 0 60 -55 c33 -30 72 -57 88 -60 15 -4 27 -11 27 -17 0 -5 -24 -35 -53
-66 -72 -76 -161 -197 -173 -234 -4 -10 -10 -18 -15 -18 -5 0 -9 -6 -9 -13 0
-7 -9 -22 -19 -34 -24 -25 -115 -205 -151 -298 -4 -11 -15 -38 -24 -60 -8 -22
-18 -51 -20 -65 -2 -14 -13 -53 -24 -87 -11 -35 -18 -63 -15 -63 3 0 0 -7 -7
-15 -7 -8 -10 -21 -7 -29 3 -8 1 -17 -6 -20 -9 -5 -9 -7 1 -12 14 -6 17 -34 3
-34 -4 0 -11 -15 -14 -32 -4 -18 -13 -62 -21 -98 -7 -36 -14 -87 -14 -115 -3
-176 -2 -288 3 -296 4 -5 8 -35 11 -67 21 -254 159 -515 447 -842 197 -223
211 -249 212 -372 0 -71 -3 -90 -18 -105 -10 -10 -27 -33 -38 -50 -19 -34 -39
-43 -39 -19 0 31 -52 76 -104 91 -94 28 -166 2 -271 -95 -22 -21 -51 -40 -65
-43 -36 -9 -245 -221 -234 -238 3 -5 -8 -17 -24 -26 -36 -23 -113 -110 -209
-238 -93 -125 -122 -174 -130 -219 -5 -34 -3 -37 26 -47 18 -6 30 -16 28 -23
-3 -6 -37 -65 -77 -131 -88 -145 -96 -161 -105 -202 -6 -29 -3 -34 19 -44 34
-16 33 -27 -8 -80 -92 -122 -178 -275 -205 -368 l-17 -56 -104 -55 c-184 -96
-259 -158 -276 -224 -9 -37 18 -74 72 -97 42 -19 48 -19 153 -5 126 18 185 38
295 101 44 25 81 44 82 42 2 -1 -31 -55 -71 -119 -160 -251 -182 -333 -105
-386 29 -20 44 -23 86 -19 98 10 256 114 379 250 l57 62 -6 -40 c-12 -90 25
-155 89 -155 70 0 216 128 322 281 49 71 133 228 148 277 7 25 25 21 25 -7 0
-38 70 -261 107 -342 71 -153 132 -247 294 -452 174 -221 315 -327 574 -428
l70 -27 -1 -88 c-2 -87 -8 -113 -58 -226 -14 -32 -14 -36 0 -34 9 1 19 7 22
13 7 10 33 17 60 14 23 -2 12 -20 -27 -42 -52 -29 -101 -95 -156 -213 -66
-142 -115 -210 -165 -230 -22 -9 -53 -16 -69 -16 -15 0 -31 -3 -35 -7 -7 -8
-26 -12 -68 -16 -16 -1 -28 -6 -28 -10 0 -4 -39 -6 -87 -5 -83 3 -88 4 -88 25
-1 37 -12 36 -40 -2 -15 -19 -26 -37 -24 -39 2 -2 25 -11 52 -20 41 -14 68
-14 226 -4 222 14 238 11 311 -69 37 -40 54 -53 60 -44 4 8 12 -13 19 -55 13
-74 36 -104 80 -104 l26 0 1 98 c1 105 17 180 40 189 68 26 108 -77 68 -177
-9 -23 -15 -43 -12 -45 2 -2 23 5 47 17 l42 21 -20 21 c-14 15 -21 36 -21 64
0 49 -19 100 -44 121 -9 8 -32 14 -51 14 -19 0 -32 3 -30 7 3 4 7 41 10 81 5
84 21 234 33 327 11 83 35 108 117 120 66 11 104 -2 155 -51 l25 -24 23 46
c12 25 36 84 54 130 l31 83 46 -6 c211 -30 325 -38 441 -32 69 4 143 8 164 9
l40 2 47 -91 c53 -103 69 -171 48 -212 -7 -15 -15 -30 -17 -35 -2 -4 3 -4 12
-1 9 3 27 3 41 0 67 -17 74 -158 15 -271 -34 -63 -197 -134 -330 -142 -41 -3
-79 -10 -85 -15 -23 -24 150 1 248 37 96 34 147 44 147 26 0 -5 15 -15 33 -22
17 -7 79 -59 137 -115 109 -104 143 -130 161 -118 6 3 24 -7 41 -22 l30 -29
-6 70 c-4 39 -9 91 -12 116 -7 59 12 81 64 77 29 -2 40 -10 55 -36 15 -25 17
-36 8 -45 -13 -13 -15 -97 -2 -97 6 0 17 10 25 22 47 67 -26 188 -114 188 -14
0 -20 7 -21 23 0 12 -2 31 -4 42 -3 11 -6 36 -9 56 -2 20 -9 46 -15 58 -7 11
-9 21 -5 21 3 0 2 6 -3 13 -6 6 -11 19 -11 27 -3 53 -18 83 -37 72 -5 -3 -4 2
3 11 8 9 10 22 6 29 -5 7 -9 18 -10 24 -1 5 -13 36 -28 67 -14 32 -26 61 -26
66 0 19 -50 121 -60 121 -5 0 -10 -4 -10 -10 0 -5 -5 -10 -11 -10 -18 0 -1 50
28 81 15 15 30 26 35 23 4 -3 13 6 20 20 6 14 14 26 18 26 10 0 30 47 30 70 0
12 -7 20 -17 20 -10 0 18 18 62 39 74 35 123 71 97 71 -16 0 -110 -37 -159
-63 -23 -12 -45 -18 -48 -15 -13 13 5 44 36 62 31 18 31 18 24 -3 -5 -16 -3
-20 10 -15 9 4 13 9 10 12 -3 3 5 16 17 29 12 12 19 25 16 29 -3 3 -15 -5 -27
-17 -12 -13 -21 -17 -21 -10 0 8 -12 5 -37 -10 -30 -18 -25 -11 25 35 88 82
125 158 42 86 -19 -16 -41 -29 -48 -30 -8 0 -39 -14 -69 -30 -31 -17 -62 -29
-69 -26 -7 3 -16 1 -19 -4 -3 -5 -22 -2 -42 6 -45 19 -160 27 -186 12 -16 -8
-15 -4 7 24 14 19 26 38 26 43 0 8 -33 3 -62 -10 -11 -4 -23 0 -34 14 -10 11
-21 18 -26 15 -4 -3 -10 1 -13 8 -3 8 -19 13 -40 12 -37 -2 -103 17 -114 33
-7 11 -36 24 -65 30 -10 2 -24 9 -30 17 -12 14 -103 76 -113 76 -4 0 -49 21
-102 46 -187 89 -227 111 -256 142 -12 12 -27 22 -33 22 -6 0 -20 12 -31 26
-12 15 -21 24 -21 20 0 -8 -16 5 -76 63 -25 25 -55 50 -67 56 -12 6 -21 17
-19 23 1 7 -2 12 -7 12 -5 0 -13 9 -16 20 -3 11 -12 20 -18 20 -7 0 -21 11
-31 25 -10 14 -25 25 -32 25 -8 0 -14 7 -14 15 0 8 -4 15 -9 15 -5 0 -7 9 -4
20 3 12 2 20 -3 18 -16 -5 -51 27 -61 57 -6 17 -16 29 -22 27 -6 -1 -11 4 -11
12 0 8 -7 17 -16 20 -9 4 -14 9 -11 12 3 3 -10 21 -29 39 -19 19 -34 41 -34
49 0 8 -10 27 -22 43 -32 39 -45 61 -69 110 -11 24 -26 43 -34 43 -8 0 -14 3
-13 8 1 4 -3 17 -10 28 -6 12 -8 24 -5 28 3 3 1 6 -4 6 -11 0 -55 82 -59 108
-2 8 -10 22 -18 31 -9 10 -16 32 -16 49 0 18 -4 32 -10 32 -5 0 -10 11 -10 24
0 13 -7 29 -15 36 -8 7 -15 20 -15 29 0 9 -5 22 -11 28 -6 6 -22 53 -37 104
-30 108 -37 244 -13 272 7 10 10 17 5 18 -5 1 2 4 16 8 18 5 30 21 46 62 19
50 54 186 54 211 0 15 -29 -12 -62 -56 -15 -21 -28 -35 -28 -31 0 5 -7 0 -15
-11 -13 -17 -14 -12 -10 48 2 37 11 91 20 120 20 69 20 95 0 78 -13 -11 -13
-8 -3 21 12 38 88 159 99 159 4 0 14 6 21 14 15 14 86 53 103 55 6 1 33 8 60
16 28 8 95 24 150 35 55 12 116 31 135 42 21 12 55 22 85 23 28 1 75 9 105 18
30 9 84 16 120 16 36 0 86 4 112 10 26 6 76 8 110 5 74 -7 168 3 168 18 0 5
-7 7 -16 4 -9 -4 -28 1 -41 9 -25 17 -43 11 -65 -20 -4 -6 -8 -2 -8 8 0 9 -6
17 -12 17 -7 0 -24 12 -37 26 -18 19 -26 22 -32 12 -6 -9 -9 -7 -9 9 0 21 -1
21 -30 6 -28 -14 -33 -13 -58 3 -30 20 -30 20 -87 30 -22 4 -48 13 -57 21 -9
8 -25 12 -36 9 -20 -7 -64 28 -70 54 -4 18 -23 31 -34 24 -4 -3 -8 2 -8 10 0
9 -7 16 -15 16 -8 0 -22 11 -31 25 -12 19 -20 23 -29 15 -9 -7 -16 -6 -25 5
-7 8 -16 12 -21 9 -5 -3 -9 -1 -9 3 0 5 -22 19 -50 32 -27 13 -50 30 -50 39 0
12 -3 12 -15 2 -12 -10 -22 -4 -59 31 -75 72 -77 74 -87 58 -7 -11 -9 -11 -9
3 0 9 -10 20 -22 24 -13 4 -29 15 -36 25 -7 11 -19 19 -26 19 -25 0 -24 37 1
69 30 38 60 54 133 71 98 23 158 62 323 211 31 29 -13 20 -58 -12 -30 -21 -49
-27 -73 -23 -18 2 -45 -2 -60 -10 -15 -7 -40 -16 -57 -20 l-30 -7 30 25 30 26
-46 -20 c-62 -26 -169 -53 -177 -44 -4 4 -2 9 4 11 6 2 20 10 30 18 17 13 15
13 -16 5 -19 -6 -48 -10 -65 -10 l-30 1 35 19 35 19 -85 -6 c-78 -6 -84 -5
-71 10 12 15 11 17 -5 18 -14 0 -11 4 11 14 29 14 29 14 5 15 -38 0 -101 20
-95 29 7 12 -19 21 -44 14 -11 -3 -33 -2 -47 1 -25 7 -26 8 -8 21 18 13 17 14
-11 15 -29 1 -28 2 10 14 37 12 38 13 15 19 -14 3 -40 8 -57 11 -18 3 -56 19
-84 35 l-52 30 37 6 c20 4 39 11 41 16 3 4 -18 20 -47 35 -104 53 -136 93 -62
79 47 -8 43 2 -10 25 -53 22 -67 40 -32 40 27 0 34 14 14 26 -7 5 -8 3 -3 -6
6 -10 4 -12 -9 -7 -10 4 -21 7 -24 7 -4 0 -1 4 7 9 10 6 4 12 -22 20 -38 13
-80 51 -56 51 12 0 12 2 0 9 -9 6 -10 11 -2 15 6 4 15 15 20 25 8 15 0 25 -56
62 l-66 43 29 13 c16 7 36 12 44 13 8 0 -1 10 -20 22 -35 21 -35 22 -10 28
l25 6 -33 28 c-22 21 -31 36 -28 52 3 13 -3 29 -15 40 -26 23 -24 33 9 45 26
10 26 11 7 24 -50 35 -51 39 -17 49 34 10 41 23 17 32 -11 5 -12 11 -5 24 8
15 5 22 -12 34 -22 16 -22 16 16 16 36 0 38 1 24 18 -17 20 -21 61 -7 78 7 9
4 15 -13 21 -19 6 -13 9 32 14 43 5 50 8 33 14 -29 9 -29 20 -1 39 l22 15 -33
14 -32 14 41 36 c23 20 39 41 35 47 -3 5 0 13 9 16 8 3 12 12 9 20 -3 10 5 16
28 21 l32 6 -27 24 -27 23 35 0 c47 0 54 17 14 33 l-33 14 28 7 c15 3 25 11
22 16 -3 5 10 12 30 16 19 3 35 11 35 16 0 6 11 21 26 34 14 13 22 24 19 24
-4 0 3 14 15 30 12 17 18 30 14 30 -21 0 34 29 56 30 l25 1 -24 13 c-24 13
-23 13 33 51 31 20 56 42 56 47 0 14 31 37 50 38 8 0 21 9 28 20 7 11 19 20
26 20 8 0 16 5 18 11 6 17 78 -17 78 -36 0 -9 -7 -18 -15 -21 -8 -4 -15 -17
-15 -29 0 -13 -4 -25 -8 -27 -5 -1 -24 -30 -43 -62 -19 -32 -43 -64 -54 -70
-28 -15 -43 -37 -50 -68 -4 -16 -12 -28 -18 -28 -16 0 -20 -63 -7 -108 6 -24
6 -40 -1 -48 -6 -7 -8 -18 -4 -24 3 -5 1 -10 -6 -10 -8 0 -8 -4 1 -15 7 -8 9
-15 4 -15 -5 0 2 -7 14 -16 13 -9 22 -26 22 -40 0 -14 4 -22 10 -19 6 3 10 2
10 -4 0 -10 25 -26 86 -55 17 -8 35 -21 41 -28 6 -7 13 -71 16 -143 6 -145 23
-215 68 -287 110 -172 329 -246 605 -203 110 18 118 18 148 1 31 -16 34 -16
83 7 28 12 65 35 82 50 18 15 37 27 42 27 5 0 9 7 9 15 0 9 12 21 28 27 l27
11 -25 6 c-21 6 -22 9 -10 17 30 18 56 173 54 311 -4 173 -44 337 -120 490
-73 147 -105 194 -151 221 -21 12 -63 42 -93 67 -92 75 -124 93 -224 125 -96
32 -127 50 -83 50 38 0 123 -33 257 -100 140 -69 139 -49 -1 26 -46 25 -73 42
-60 38 98 -27 336 -195 426 -302 20 -23 40 -40 44 -37 4 2 16 -13 27 -33 l18
-37 6 50 c8 69 17 31 24 -103 4 -72 11 -108 21 -119 8 -8 15 -20 15 -26 1 -7
12 9 25 35 14 26 29 49 35 53 14 9 12 -28 -4 -72 -8 -21 -17 -62 -21 -92 -5
-47 -4 -52 8 -39 8 8 27 39 43 69 19 36 29 48 32 37 2 -10 -6 -31 -17 -46 -23
-33 -37 -82 -24 -82 5 0 16 15 25 33 10 20 24 33 37 34 21 2 21 2 2 -35 -11
-21 -22 -60 -26 -87 l-7 -50 26 38 c15 20 29 37 32 37 6 0 -2 -53 -12 -88 -3
-9 2 -6 11 8 15 24 16 24 10 3 -3 -13 -8 -33 -12 -45 -3 -13 -7 -50 -8 -83 -1
-33 -5 -75 -9 -92 -7 -32 8 -63 32 -63 5 0 15 -6 21 -14 10 -11 9 -16 -4 -24
-9 -5 -16 -13 -14 -18 2 -5 -21 -13 -49 -17 -34 -6 -52 -13 -52 -23 0 -8 6
-14 13 -15 6 0 1 -5 -12 -10 -14 -6 -21 -15 -17 -24 3 -8 -2 -18 -10 -23 -8
-5 -16 -18 -17 -30 -1 -12 -8 -22 -16 -22 -11 0 -9 -5 7 -16 31 -21 28 -31 -8
-26 -29 4 -41 -10 -20 -23 18 -11 11 -27 -10 -22 -15 4 -20 0 -20 -15 0 -17
-3 -18 -15 -8 -13 11 -15 6 -15 -39 0 -33 -4 -50 -10 -46 -6 3 -13 -1 -16 -9
-3 -9 -10 -13 -15 -10 -5 3 -9 -3 -10 -13 0 -11 -3 -13 -6 -5 -7 17 -23 5 -23
-19 0 -12 -7 -19 -20 -19 -13 0 -20 -7 -20 -19 0 -28 -20 -37 -21 -9 -1 19 -3
18 -9 -7 -7 -28 -8 -29 -10 -5 l-2 25 -10 -27 c-5 -16 -13 -28 -18 -28 -5 0
-11 -8 -13 -17 -3 -10 -5 -2 -6 17 l-1 35 -20 -42 c-10 -24 -23 -43 -28 -43
-6 0 -13 -11 -16 -25 -4 -14 -10 -23 -15 -21 -5 3 -14 -8 -21 -25 -8 -18 -18
-28 -26 -25 -8 3 -14 -1 -14 -9 0 -21 -20 -19 -21 3 0 9 -9 0 -19 -22 -17 -36
-18 -37 -22 -15 -3 21 -6 17 -28 -26 -22 -46 -25 -48 -30 -25 -7 25 -7 24 -30
-14 -20 -33 -25 -36 -30 -21 -6 18 -7 18 -12 -1 -3 -10 -9 -26 -12 -35 -5 -12
0 -19 21 -24 15 -5 32 -7 36 -7 8 2 67 -115 67 -133 0 -25 85 -165 100 -165 5
0 21 -11 35 -24 14 -13 31 -23 38 -22 85 16 158 49 340 154 21 12 46 22 57 22
19 0 19 10 15 384 -2 255 -7 392 -15 405 -9 18 -6 27 17 56 15 20 45 43 66 53
27 12 36 22 33 35 -3 11 0 17 7 14 7 -2 12 -15 12 -28 0 -15 9 -29 25 -38 15
-9 20 -16 13 -18 -16 -6 -4 -30 47 -94 30 -38 40 -63 54 -133 18 -90 37 -141
72 -191 44 -64 38 -76 -47 -90 -21 -3 -49 -15 -63 -26 -28 -22 -82 -106 -73
-115 6 -6 132 41 160 61 36 25 56 18 135 -54 197 -176 373 -301 466 -329 33
-10 193 -6 234 6 20 6 65 18 100 26 34 8 74 23 90 34 15 11 45 27 67 38 22 10
44 24 48 31 4 7 17 13 29 13 13 0 18 5 15 14 -3 8 -1 17 6 20 7 2 -12 5 -42 5
-46 1 -52 -1 -41 -14 23 -28 1 -38 -69 -32 l-66 6 30 -25 30 -25 -40 7 c-22 4
-59 12 -82 19 -45 14 -58 4 -31 -23 19 -19 -23 -15 -87 7 -47 17 -53 17 -48 3
5 -12 2 -14 -13 -8 -10 5 -26 9 -34 9 -8 0 -39 18 -67 39 -40 29 -53 35 -53
22 0 -11 -17 -1 -52 31 -40 36 -54 44 -56 31 -5 -23 -17 -20 -32 9 -7 14 -19
25 -25 25 -11 0 -52 42 -107 109 -25 30 -28 31 -28 12 0 -35 -14 -24 -38 32
-13 30 -41 76 -64 103 -22 27 -48 65 -56 84 -13 31 -16 33 -22 15 -7 -18 -8
-18 -15 8 -4 15 -10 27 -14 27 -13 0 -31 49 -31 83 0 21 -3 28 -9 19 -5 -9
-10 0 -15 28 -4 27 -10 39 -18 34 -8 -5 -9 2 -5 26 6 26 4 30 -6 21 -11 -8
-13 2 -12 55 1 60 -1 67 -24 78 -25 13 -25 14 -3 20 l22 7 -25 27 c-30 32 -31
42 -7 42 12 1 10 4 -8 13 -14 7 -26 19 -28 27 -2 8 -8 17 -13 18 -20 8 -8 24
14 19 20 -6 20 -4 -5 18 -29 25 -38 42 -15 29 6 -4 3 2 -7 14 -11 13 -14 22
-7 22 8 0 7 9 -4 30 -8 16 -15 37 -15 47 1 11 9 3 21 -20 11 -22 23 -36 26
-33 3 3 0 12 -7 21 -7 8 -14 41 -15 72 -3 51 -2 56 10 39 20 -26 38 -10 29 26
-5 25 -3 30 9 25 12 -5 14 2 10 36 -3 32 -2 38 6 27 8 -11 11 -3 11 35 1 44 2
48 14 33 17 -24 26 -23 26 3 0 11 5 17 10 14 6 -4 10 8 10 29 0 20 5 36 10 36
6 0 10 -11 10 -25 0 -14 5 -25 10 -25 6 0 10 18 10 39 0 38 23 65 33 38 7 -17
27 39 27 74 0 34 20 30 20 -4 1 -18 4 -16 15 11 8 18 24 47 35 63 12 16 18 29
14 29 -4 0 3 11 16 25 12 13 26 22 30 20 4 -3 16 5 26 17 11 12 13 18 5 13 -9
-5 -12 -3 -9 6 3 8 10 13 15 12 6 -1 27 22 47 52 21 29 49 61 63 70 14 10 23
13 20 8 -3 -5 42 15 101 46 112 57 123 47 18 -16 -72 -43 -166 -114 -166 -125
0 -5 32 8 71 27 99 50 265 100 399 120 141 21 143 22 137 39 -4 9 5 16 25 20
17 3 29 8 26 11 -2 3 -19 0 -38 -5 -35 -10 -117 -2 -103 9 4 4 51 15 103 25
52 9 105 19 118 22 31 6 28 -8 -8 -34 -27 -21 -41 -44 -22 -40 4 1 25 -2 46
-7 34 -7 37 -9 23 -20 -15 -10 -8 -16 46 -43 88 -43 95 -44 107 -22 9 17 7 20
-12 20 -17 0 -19 3 -9 9 7 5 11 13 8 18 -10 17 11 37 41 39 56 4 101 24 104
47 2 12 12 26 23 32 11 5 46 30 78 54 41 32 54 47 45 52 -10 6 -5 16 20 38 31
29 43 61 22 61 -5 0 -26 -9 -47 -19 -43 -22 -83 -35 -83 -27 0 3 30 23 68 45
79 46 181 142 205 194 10 20 22 39 27 42 12 7 50 80 50 95 0 15 -47 12 -82 -6
-16 -8 -56 -16 -87 -18 -51 -1 -64 -7 -147 -64 -50 -34 -99 -71 -109 -82 -33
-37 -48 -25 -104 90 -57 118 -83 145 -186 195 -56 28 -234 76 -274 74 -18 -1
-14 -4 15 -9 92 -18 128 -31 113 -41 -11 -7 -11 -9 4 -9 9 0 17 -7 17 -15 0
-8 5 -15 10 -15 6 0 10 -5 10 -11 0 -5 -4 -7 -10 -4 -5 3 -10 -1 -10 -9 0 -9
4 -16 9 -16 19 0 30 -68 19 -120 -4 -22 -2 -40 5 -49 10 -12 9 -14 -7 -8 -17
7 -17 6 -5 -10 13 -15 12 -16 -6 -8 -58 24 -348 33 -610 18 -220 -13 -398 -10
-403 6 -3 9 0 11 8 6 8 -5 11 -3 8 6 -3 8 -15 13 -28 13 -22 -2 -23 -1 -7 11
15 11 15 13 2 18 -9 4 -12 13 -8 23 5 13 3 15 -7 9 -9 -5 -11 -4 -6 4 4 6 12
9 17 6 5 -4 9 4 9 17 0 17 -3 19 -9 10 -6 -10 -10 -7 -15 13 -9 34 26 85 58
85 8 0 17 4 21 9 3 6 -15 8 -42 6 -48 -3 -48 -3 17 15 96 27 59 25 -80 -5 -14
-3 -39 -8 -56 -11 l-32 -6 -6 149 c-4 81 -9 223 -11 315 -2 92 -6 172 -9 177
-4 5 -2 12 2 15 5 3 8 58 7 121 -1 64 2 118 7 121 5 3 6 10 2 15 -3 6 12 27
33 47 38 36 97 62 154 67 15 1 31 5 37 9 5 3 68 6 138 7 177 2 329 -34 492
-114 78 -39 123 -73 167 -127 29 -35 151 -243 160 -271 l8 -24 8 23 c6 15 17
22 36 22 15 0 138 23 273 50 257 53 680 130 711 130 18 0 19 -10 19 -147 0
-142 -1 -148 -26 -185 -25 -36 -26 -40 -14 -82 12 -42 11 -46 -16 -81 -20 -27
-29 -51 -32 -92 -4 -53 -3 -57 30 -87 34 -31 35 -34 41 -127 3 -51 17 -147 32
-212 l26 -117 -21 -27 c-22 -28 -20 -67 3 -104 9 -14 5 -29 -17 -69 -39 -72
-37 -131 13 -375 69 -339 131 -741 131 -852 0 -42 0 -42 43 -48 25 -4 63 -1
88 5 24 7 56 12 70 12 l27 -1 -18 52 c-38 108 -104 401 -114 507 -7 68 2 36
34 -125 20 -100 96 -351 121 -397 11 -20 49 -25 49 -5 0 7 -13 44 -29 82 -37
87 -76 224 -84 290 -5 39 -1 29 20 -43 29 -103 43 -120 18 -21 -26 101 -72
388 -96 599 -15 131 -52 260 -95 326 -15 22 -15 24 0 30 20 8 21 34 1 34 -25
0 -55 38 -55 70 0 35 -29 43 -37 10 -10 -36 -24 -9 -18 33 4 23 1 64 -5 91 -6
27 -15 120 -20 205 -9 151 -9 157 11 171 21 17 16 30 -12 30 -32 0 -59 33 -62
75 -1 22 -6 43 -11 46 -5 4 5 14 22 23 29 15 31 19 19 37 -10 17 -9 22 7 35
11 8 14 14 8 14 -7 0 -12 12 -12 26 0 14 -5 35 -11 46 -8 15 -8 22 0 28 17 10
31 111 32 227 l1 102 51 10 c29 6 115 22 192 36 172 32 215 43 215 55 0 6 -7
10 -16 10 -33 0 -340 105 -408 140 l-39 20 5 -53 c3 -28 2 -74 -2 -102 l-7
-50 -2 44 c0 25 -5 58 -10 75 -5 17 -16 63 -25 101 -21 88 -43 111 -119 126
-81 14 -91 7 -31 -24 30 -15 55 -36 62 -52 10 -22 10 -26 0 -23 -7 3 -56 20
-108 38 -52 18 -100 37 -106 41 -10 8 -89 38 -289 109 -194 70 -357 130 -440
165 -78 32 -249 96 -280 105 -26 7 -47 15 -145 52 -58 22 -123 48 -145 58 -22
10 -78 30 -125 45 -47 16 -130 46 -185 68 -55 21 -145 55 -200 74 -55 20 -104
39 -110 43 -5 4 -26 13 -46 19 -20 6 -47 23 -59 36 -13 14 -28 25 -34 24 -6 0
-139 -38 -296 -83z m389 -1226 c15 -340 18 -520 9 -520 -5 0 -8 51 -9 113 0
61 -2 137 -4 167 -6 81 -25 541 -24 570 3 72 17 -97 28 -330z m21 -546 c0 -8
-4 -12 -10 -9 -5 3 -10 10 -10 16 0 5 5 9 10 9 6 0 10 -7 10 -16z m-13 -56
c-3 -7 -5 -2 -5 12 0 14 2 19 5 13 2 -7 2 -19 0 -25z m1961 -178 c-7 -11 -16
-20 -20 -20 -5 0 -8 -4 -8 -10 0 -5 -17 -35 -37 -68 -34 -52 -45 -61 -112 -90
-41 -18 -75 -31 -77 -30 -1 2 14 14 34 28 20 13 78 66 128 117 90 92 116 112
92 73z m-2498 -128 c63 -42 85 -61 65 -56 -26 6 -23 1 30 -43 33 -28 69 -61
80 -74 l20 -24 -26 23 c-14 12 -28 22 -32 22 -4 0 -45 36 -91 81 -46 44 -102
94 -125 111 -23 16 -41 32 -41 34 0 6 4 4 120 -74z m1479 44 c-3 -3 -47 -29
-99 -59 -52 -30 -131 -75 -175 -101 -88 -51 -127 -61 -82 -21 35 31 11 34 -29
3 l-29 -22 19 22 c10 12 28 24 40 28 11 3 32 16 45 28 l24 21 -17 -27 -18 -27
31 12 c16 6 28 14 25 18 -6 10 127 87 199 114 55 20 80 24 66 11z m51 -46 c0
-4 -12 -8 -27 -8 -40 -2 -61 -7 -69 -15 -4 -4 -14 -7 -23 -7 -9 1 -2 9 16 18
32 17 103 25 103 12z m-503 -82 c-9 -18 -17 -42 -19 -53 -2 -11 -10 -19 -16
-17 -7 1 -12 -2 -12 -8 0 -5 -6 -10 -14 -10 -19 0 -47 -45 -36 -56 6 -6 -13
-43 -48 -94 -32 -47 -71 -119 -86 -160 -16 -41 -45 -99 -64 -128 -34 -53 -64
-83 -43 -44 6 11 11 33 11 49 0 16 9 45 20 66 20 36 11 54 -9 20 -20 -34 -12
9 10 53 14 30 18 48 11 59 -7 14 -16 8 -55 -35 -28 -30 -51 -69 -58 -93 -20
-75 -12 -118 16 -81 24 32 17 7 -10 -32 -14 -21 -25 -30 -25 -21 0 29 -23 68
-37 63 -10 -4 -13 6 -13 39 0 24 -8 57 -17 74 -18 31 -36 41 -32 19 1 -7 -1
-20 -4 -28 -3 -8 -8 -24 -10 -35 -3 -11 -5 8 -6 43 -1 47 2 61 11 56 13 -8
-19 48 -67 116 -39 55 -48 70 -41 70 2 0 35 -39 73 -87 67 -87 68 -88 74 -58
6 29 9 25 14 -20 1 -11 10 -36 20 -54 15 -31 18 -32 27 -17 7 12 13 14 17 8 4
-7 18 3 34 24 23 29 29 46 32 105 3 39 7 81 10 93 5 16 4 18 -4 6 -15 -22 -26
-3 -13 25 6 14 8 24 4 24 -22 -4 -42 2 -37 10 3 5 2 12 -3 15 -4 2 -9 -5 -9
-16 -1 -12 -7 -26 -13 -32 -8 -8 -10 -4 -4 17 5 23 1 34 -22 59 l-29 30 39
-16 c21 -9 47 -16 56 -16 10 0 21 -8 23 -17 4 -14 5 -13 6 4 0 12 -3 25 -9 28
-12 7 -13 25 -2 25 10 0 32 -59 32 -85 0 -37 44 -175 55 -175 16 0 39 35 55
85 12 36 50 84 68 85 15 1 52 39 52 54 0 12 -7 14 -32 9 -22 -4 -29 -3 -24 5
4 7 13 12 20 12 20 0 40 27 26 35 -5 3 -10 2 -10 -4 0 -6 -12 -6 -35 0 -19 6
-41 7 -48 3 -9 -5 -9 -4 0 6 10 11 201 41 211 34 2 -1 -3 -17 -11 -36z m776
11 c-68 -28 -70 -29 -38 -24 28 5 28 5 7 -5 -13 -5 -28 -7 -33 -4 -6 3 -16 0
-24 -6 -8 -7 -40 -23 -72 -36 -58 -23 -58 -24 -21 -24 20 0 49 5 65 11 48 18
127 21 157 5 15 -7 24 -16 19 -19 -5 -3 -58 -6 -118 -6 -61 0 -137 -3 -170 -7
-44 -4 -56 -3 -45 5 12 9 10 11 -10 11 -20 1 -13 7 33 31 32 16 61 28 65 25 5
-3 44 8 87 24 76 27 153 42 98 19z m-1625 -25 c20 -13 88 -98 132 -164 34 -50
52 -70 65 -70 8 0 13 -9 12 -19 -1 -15 -4 -17 -14 -9 -10 8 -13 5 -14 -13 0
-19 -4 -15 -15 16 -17 47 -75 145 -85 145 -4 0 5 -26 21 -57 16 -31 26 -61 23
-67 -6 -9 -43 30 -65 68 -8 16 -8 18 5 13 20 -8 11 19 -15 45 -9 9 -15 24 -12
31 3 8 -14 32 -37 55 -42 42 -42 55 -1 26z m2 -49 c13 -14 21 -25 18 -25 -2 0
-15 11 -28 25 -13 14 -21 25 -18 25 2 0 15 -11 28 -25z m-63 -41 c6 -13 8 -24
5 -24 -10 0 -72 63 -72 73 0 16 55 -24 67 -49z m388 -18 c17 -41 31 -129 17
-106 -5 8 -13 32 -16 53 -4 21 -15 46 -26 57 -10 10 -16 21 -12 24 12 13 24 4
37 -28z m288 -15 c4 -29 2 -40 -4 -30 -8 13 -14 88 -5 78 2 -2 6 -24 9 -48z
m-618 19 c10 -11 16 -20 13 -20 -3 0 -13 9 -23 20 -10 11 -16 20 -13 20 3 0
13 -9 23 -20z m325 -129 c0 -9 -8 -3 -20 17 -25 41 -25 54 0 23 11 -13 20 -31
20 -40z m72 31 c3 -10 -1 -23 -9 -30 -11 -11 -13 -7 -13 23 0 36 14 41 22 7z
m1225 22 c-3 -3 -12 -4 -19 -1 -8 3 -5 6 6 6 11 1 17 -2 13 -5z m1121 -6 c25
-31 93 -300 79 -314 -5 -5 -31 96 -48 180 -12 64 -38 133 -39 103 0 -10 7 -41
16 -68 9 -27 14 -52 11 -55 -6 -6 -36 93 -42 137 -4 31 6 37 23 17z m34 0 c18
-14 51 -91 67 -153 27 -107 79 -455 96 -650 l5 -50 -15 60 c-8 33 -35 188 -60
345 -51 314 -65 372 -100 424 -25 37 -22 46 7 24z m-1453 -72 c-15 -13 -110
-55 -104 -46 8 12 82 49 99 50 5 0 7 -2 5 -4z m146 -15 c7 -12 -52 -29 -130
-38 -72 -7 -68 2 12 27 65 21 109 25 118 11z m1242 -43 c-3 -8 -6 -5 -6 6 -1
11 2 17 5 13 3 -3 4 -12 1 -19z m-1267 -27 c0 -10 1 -10 -164 -52 -66 -16
-128 -35 -138 -40 -11 -6 -24 -9 -30 -7 -24 8 178 89 252 101 46 8 80 7 80 -2z
m369 -12 c-22 -13 -31 -11 -17 5 7 8 17 12 22 9 4 -3 2 -9 -5 -14z m918 -41
c-3 -8 -6 -5 -6 6 -1 11 2 17 5 13 3 -3 4 -12 1 -19z m-2497 -132 c0 -28 -17
-8 -25 29 -6 29 -6 29 9 11 9 -11 16 -29 16 -40z m104 -1 c-6 -25 -8 -25 -23
-10 -15 15 -15 17 3 31 25 18 29 13 20 -21z m146 -126 c-29 -91 -32 -94 -59
-46 l-24 42 26 -24 26 -24 11 27 c5 15 13 39 16 54 8 32 14 45 20 39 2 -2 -5
-33 -16 -68z m64 25 c3 -8 2 -12 -4 -9 -6 3 -10 10 -10 16 0 14 7 11 14 -7z
m2233 -16 c-3 -7 -5 -2 -5 12 0 14 2 19 5 13 2 -7 2 -19 0 -25z m-2191 -30
c12 -19 15 -78 4 -78 -5 0 -10 15 -10 33 0 18 -5 38 -12 45 -9 9 -9 12 -1 12
7 0 15 -5 19 -12z m2201 -25 c-3 -10 -5 -4 -5 12 0 17 2 24 5 18 2 -7 2 -21 0
-30z m-2402 -28 c4 -21 3 -25 -3 -15 -15 24 -26 67 -14 55 6 -5 13 -23 17 -40z
m-145 -2 c0 -21 -3 -24 -9 -14 -5 8 -7 20 -4 28 8 21 13 15 13 -14z m2557 -25
c-3 -8 -6 -5 -6 6 -1 11 2 17 5 13 3 -3 4 -12 1 -19z m-2390 -50 c-3 -7 -5 -2
-5 12 0 14 2 19 5 13 2 -7 2 -19 0 -25z m-653 -256 c19 -68 -56 -82 -86 -16
-11 23 -10 28 7 41 33 24 68 13 79 -25z m-660 -148 c9 -3 13 -10 10 -15 -3 -5
1 -9 8 -9 8 0 14 -10 15 -22 1 -11 7 -24 13 -28 6 -4 10 -11 9 -16 -5 -15 11
-84 19 -84 4 0 23 -15 43 -34 71 -67 168 -106 307 -121 63 -7 86 -20 61 -36
-10 -6 -7 -9 11 -10 23 -1 23 -2 -5 -9 -83 -21 -233 -2 -316 40 -60 31 -156
135 -153 167 1 7 -4 13 -11 13 -7 0 -16 15 -20 33 -7 32 -14 137 -9 137 1 0 9
-3 18 -6z m3813 -106 c-2 -13 -4 -5 -4 17 -1 22 1 32 4 23 2 -10 2 -28 0 -40z
m40 -125 c14 -21 14 -25 3 -21 -22 7 -40 48 -39 88 l1 35 9 -38 c5 -20 17 -49
26 -64z m-2582 -12 c-6 -5 -28 -12 -50 -16 -37 -6 -39 -5 -20 9 21 16 86 23
70 7z m-1655 -1477 c0 -21 -4 -33 -10 -29 -5 3 -10 19 -10 36 0 16 5 29 10 29
6 0 10 -16 10 -36z m-676 -366 c-16 -18 -50 -63 -74 -100 -36 -53 -49 -66 -65
-62 -14 3 -36 -7 -65 -30 -25 -20 -48 -36 -51 -36 -8 0 209 211 245 238 41 31
45 27 10 -10z m316 -204 c0 -14 -7 -47 -16 -74 -15 -45 -15 -52 0 -81 16 -31
15 -38 -25 -183 -92 -341 -204 -537 -443 -779 -53 -53 -96 -100 -96 -105 0 -9
-78 -69 -130 -101 -66 -40 -75 -23 -12 24 39 28 78 70 110 117 27 40 61 84 76
97 24 23 51 89 41 100 -3 2 -13 -3 -22 -11 -10 -9 -33 -23 -52 -33 -33 -17
-33 -17 -19 4 8 12 45 47 83 78 81 69 156 186 205 320 l31 87 -23 18 -23 18
36 33 c19 17 50 43 69 57 46 35 98 87 112 113 11 20 10 21 -10 7 -100 -70
-164 -111 -168 -107 -3 2 9 20 25 38 53 60 191 237 191 245 0 4 -11 -3 -25
-16 -14 -13 -25 -18 -25 -12 0 6 4 13 9 16 5 3 12 27 16 53 10 70 85 138 85
77z m-209 -267 c-10 -9 -11 -8 -5 6 3 10 9 15 12 12 3 -3 0 -11 -7 -18z"/>
<path d="M5305 7610 c-19 -9 -19 -9 2 -16 12 -3 25 -5 29 -4 4 1 11 -4 16 -12
7 -9 8 -8 4 5 -3 10 -6 23 -6 28 0 11 -18 11 -45 -1z"/>
<path d="M5048 7380 c-2 -38 0 -70 3 -70 15 0 30 60 24 94 -12 60 -23 50 -27
-24z"/>
<path d="M5147 7344 c-4 -4 -7 -17 -7 -28 1 -19 1 -20 11 -3 11 19 8 43 -4 31z"/>
<path d="M4899 7252 c6 -11 16 -33 21 -48 6 -15 13 -24 16 -21 7 7 -21 73 -36
82 -9 6 -9 3 -1 -13z"/>
<path d="M5086 7163 c-6 -14 -5 -15 5 -6 7 7 10 15 7 18 -3 3 -9 -2 -12 -12z"/>
<path d="M4580 7536 c0 -2 7 -9 15 -16 9 -7 15 -8 15 -2 0 5 -7 12 -15 16 -8
3 -15 4 -15 2z"/>
<path d="M2586 3374 c-32 -36 -57 -67 -54 -69 6 -7 91 84 107 113 6 12 10 22
9 21 -2 0 -29 -29 -62 -65z"/>
<path d="M5838 8083 c12 -2 32 -2 45 0 12 2 2 4 -23 4 -25 0 -35 -2 -22 -4z"/>
<path d="M5288 8073 c7 -3 16 -2 19 1 4 3 -2 6 -13 5 -11 0 -14 -3 -6 -6z"/>
<path d="M5178 8053 c7 -3 16 -2 19 1 4 3 -2 6 -13 5 -11 0 -14 -3 -6 -6z"/>
<path d="M6295 8010 c10 -11 20 -20 23 -20 3 0 -3 9 -13 20 -10 11 -20 20 -23
20 -3 0 3 -9 13 -20z"/>
<path d="M6280 7986 c0 -2 7 -9 15 -16 9 -7 15 -8 15 -2 0 5 -7 12 -15 16 -8
3 -15 4 -15 2z"/>
<path d="M7401 7363 c24 -49 69 -277 118 -591 34 -216 75 -402 86 -390 2 2 -7
44 -20 94 -13 50 -35 174 -50 275 -27 190 -68 434 -86 504 -14 57 -50 145 -59
145 -4 0 1 -17 11 -37z"/>
<path d="M6427 7109 c7 -7 15 -10 18 -7 3 3 -2 9 -12 12 -14 6 -15 5 -6 -5z"/>
<path d="M6468 7066 c-16 -12 -16 -14 3 -29 10 -9 23 -17 27 -17 5 0 8 -10 7
-22 -2 -29 29 -59 52 -51 17 6 16 5 -1 -15 -17 -20 -17 -22 -2 -28 10 -4 15
-12 12 -19 -3 -8 2 -16 10 -19 8 -3 14 -10 14 -16 0 -5 16 -26 35 -46 40 -41
38 -35 25 -68 -6 -17 -6 -26 0 -26 6 0 10 -7 10 -15 0 -8 14 -22 31 -30 30
-16 30 -17 13 -36 -16 -18 -16 -19 2 -19 16 0 17 -2 4 -10 -9 -6 -10 -10 -3
-10 6 0 14 -10 18 -22 10 -35 28 -68 37 -68 27 0 -17 211 -63 298 -49 93 -69
126 -87 142 -9 9 -24 29 -33 45 -9 18 -22 29 -32 27 -9 -2 -17 2 -17 8 0 5 5
10 11 10 6 0 -3 11 -19 25 -34 29 -32 28 -54 11z"/>
<path d="M5616 6840 c-102 -36 -192 -103 -261 -194 -15 -19 -28 -41 -29 -48
-1 -7 -17 -44 -36 -83 -24 -50 -34 -84 -34 -119 0 -31 -2 -42 -7 -30 -6 16 -8
14 -8 -8 -1 -15 3 -29 8 -32 4 -3 11 -28 14 -55 8 -70 46 -138 111 -199 138
-130 310 -140 429 -24 145 141 154 330 22 480 -37 42 -124 92 -160 92 -8 0
-15 4 -15 10 0 24 167 26 185 2 6 -7 17 -14 25 -15 25 -4 55 -30 75 -64 11
-18 22 -33 26 -33 18 0 47 -120 47 -197 1 -140 -44 -266 -120 -343 -73 -73
-201 -96 -337 -61 -102 25 -156 56 -211 118 -50 57 -65 85 -85 155 l-15 53 3
-46 c5 -58 44 -143 87 -193 89 -101 353 -169 513 -132 88 21 139 47 194 102
93 94 131 222 114 392 -15 149 -15 155 9 149 24 -6 26 5 5 23 -8 7 -15 27 -15
45 0 74 -103 194 -206 242 -81 37 -243 43 -328 13z m212 -34 c52 -14 174 -76
201 -101 8 -8 -24 6 -70 30 -148 77 -282 82 -427 16 -67 -31 -60 -16 11 20 89
46 194 59 285 35z m-33 -311 c30 -30 31 -54 4 -89 -15 -20 -29 -26 -58 -26
-46 0 -61 14 -61 57 0 39 37 83 70 83 12 0 32 -11 45 -25z"/>
<path d="M7610 6366 c0 -16 62 -125 81 -142 33 -30 34 -5 2 29 -18 17 -43 52
-57 77 -14 25 -26 41 -26 36z"/>
<path d="M7570 6345 c0 -5 5 -17 10 -25 5 -8 10 -10 10 -5 0 6 -5 17 -10 25
-5 8 -10 11 -10 5z"/>
<path d="M7610 6256 c0 -11 30 -66 36 -66 2 0 -3 15 -12 33 -19 36 -24 44 -24
33z"/>
<path d="M6790 6045 c0 -8 5 -15 10 -15 6 0 10 7 10 15 0 8 -4 15 -10 15 -5 0
-10 -7 -10 -15z"/>
<path d="M6750 5940 c0 -5 4 -10 9 -10 6 0 13 5 16 10 3 6 -1 10 -9 10 -9 0
-16 -4 -16 -10z"/>
<path d="M7515 5868 c-142 -35 -345 -128 -450 -207 -66 -50 -186 -210 -230
-306 -20 -43 -52 -130 -73 -194 -35 -113 -36 -120 -37 -276 0 -182 15 -272 66
-387 25 -57 28 -72 17 -79 -10 -7 -11 -12 0 -29 7 -12 8 -20 2 -20 -5 0 -10 4
-10 8 0 15 -105 119 -168 166 -159 121 -245 158 -359 157 -81 0 -83 1 -83 24
0 41 10 52 98 118 118 88 275 252 351 367 79 120 185 334 209 425 l20 71 -23
2 c-18 1 -22 -2 -18 -18 3 -11 0 -20 -6 -20 -6 0 -11 -8 -11 -17 -1 -17 -2
-17 -15 1 -14 18 -52 16 -40 -3 3 -6 -2 -14 -11 -19 -14 -8 -13 -13 12 -36 26
-25 27 -27 7 -21 -19 5 -22 3 -16 -11 5 -13 3 -16 -9 -11 -15 5 -34 -17 -30
-35 1 -5 -5 -8 -13 -8 -10 0 -15 -7 -13 -17 2 -10 -2 -17 -9 -16 -7 2 -10 -4
-7 -12 4 -8 -6 -27 -23 -43 -16 -16 -27 -34 -26 -39 2 -5 -5 -18 -15 -28 -10
-11 -29 -38 -42 -60 -47 -79 -130 -173 -197 -226 -37 -29 -70 -56 -73 -59 -13
-15 -78 -60 -87 -60 -5 0 -29 -18 -52 -40 -49 -47 -129 -108 -216 -167 -34
-22 -75 -57 -90 -77 -14 -19 -41 -40 -58 -45 -18 -6 -38 -21 -46 -33 -13 -20
-11 -24 22 -52 31 -28 57 -64 57 -81 0 -4 -19 8 -41 26 -38 30 -41 31 -29 8
19 -36 131 -149 147 -149 8 0 11 -4 8 -10 -3 -5 -1 -10 4 -10 6 0 11 -5 11
-11 0 -5 13 -27 29 -47 29 -37 43 -63 101 -182 18 -36 60 -101 94 -145 59 -75
232 -358 289 -471 14 -27 28 -67 31 -87 19 -119 17 -113 30 -95 11 15 16 10
39 -38 28 -56 43 -67 50 -36 2 9 7 -9 11 -41 5 -36 4 -74 -3 -102 -6 -24 -11
-62 -11 -84 0 -22 -4 -42 -9 -45 -5 -3 -9 -34 -9 -68 0 -53 1 -58 9 -33 5 17
14 77 20 135 6 58 16 112 21 120 15 24 2 -198 -18 -299 l-17 -90 27 -41 c38
-58 304 -318 426 -417 138 -111 270 -178 353 -178 64 0 72 7 82 65 8 45 -11
101 -82 248 -30 62 -53 115 -51 117 2 2 43 -11 91 -30 97 -39 184 -47 207 -20
15 18 15 89 0 144 -24 90 -95 217 -194 348 -20 26 -51 68 -69 93 -18 25 -40
46 -48 48 -8 1 -33 -11 -55 -29 -53 -43 -134 -83 -133 -67 0 12 50 56 160 143
20 17 47 46 58 66 l21 37 163 4 162 3 140 69 c150 74 233 129 327 215 64 60
79 91 54 116 -9 9 -16 13 -16 8 -1 -4 -7 3 -14 17 -19 33 -12 95 14 122 11 12
22 30 26 40 3 10 9 18 13 18 4 0 12 15 19 33 14 39 38 63 122 124 36 26 67 50
70 53 3 3 22 14 44 25 37 19 137 120 159 160 9 17 8 18 -5 8 -11 -9 -17 -10
-26 -1 -18 18 -62 -6 -63 -34 l-1 -23 -6 22 -7 22 -55 -20 c-74 -26 -86 -19
-16 10 45 18 53 25 43 36 -7 7 -19 11 -29 10 -9 -2 -18 4 -21 15 -3 11 -12 17
-23 16 -23 -4 -56 7 -55 17 2 10 -50 57 -62 57 -6 0 -21 10 -34 22 l-23 21 -1
-44 c-1 -37 -2 -40 -9 -19 -4 14 -8 46 -9 73 -1 44 -3 47 -23 42 -48 -11 -161
-26 -165 -22 -2 3 30 12 71 22 55 13 76 22 79 36 4 15 0 19 -21 19 -18 0 -23
3 -14 8 9 6 5 12 -15 23 -16 7 -36 22 -45 33 -10 10 -18 15 -18 11 0 -4 -14 6
-30 24 -17 17 -37 31 -44 31 -8 0 -17 8 -19 18 -3 9 -3 -19 -2 -63 l3 -80 -15
93 c-17 102 -12 97 -99 93 -37 -2 -44 1 -60 28 -10 17 -22 31 -26 31 -4 0 -7
9 -5 21 2 21 -27 49 -39 37 -3 -4 -8 -42 -11 -85 -6 -97 -13 -108 -13 -22 0
99 -5 109 -54 110 -22 1 -32 3 -21 6 71 15 66 8 59 71 -10 93 -22 129 -45 135
-13 4 -19 11 -16 19 3 9 -6 19 -23 27 -25 11 -31 10 -49 -8 -17 -17 -21 -35
-23 -98 l-1 -78 -6 77 c-3 42 -9 80 -14 84 -4 4 -32 3 -62 -3 -30 -5 -60 -6
-66 -3 -17 11 1 18 48 18 37 1 99 21 66 22 -18 0 -16 20 1 20 19 0 26 53 26
192 0 113 -1 117 -22 121 l-23 4 23 2 c18 1 22 7 22 33 0 17 3 29 6 26 3 -4 5
-80 5 -171 -1 -151 0 -164 16 -163 10 1 28 7 39 13 12 7 23 11 25 9 4 -4 4
183 0 211 0 6 -11 13 -23 16 -23 4 -23 4 2 15 24 11 24 11 -10 12 l-35 2 35
15 c35 16 35 16 10 23 l-25 6 30 8 c26 7 27 9 12 17 -10 6 -42 8 -72 5 l-55
-4 0 39 c0 21 -4 39 -10 39 -5 0 -10 -5 -10 -10 0 -6 -11 -15 -24 -21 -13 -6
-26 -19 -29 -29 -3 -10 -18 -21 -36 -25 -17 -4 -31 -11 -31 -16 0 -5 0 -11 0
-14 0 -8 -42 -56 -80 -92 -37 -35 -66 -44 -56 -17 3 9 6 18 6 20 0 2 6 4 13 4
11 0 37 43 37 64 0 5 7 18 17 28 19 21 13 31 -20 31 -24 0 -24 0 10 33 19 19
39 34 43 34 5 0 12 9 15 20 3 11 18 23 31 26 17 4 23 11 19 22 -3 8 2 20 11
27 22 16 11 45 -16 45 -11 0 -20 5 -20 10 0 6 -7 10 -16 10 -8 0 -12 5 -9 10
3 6 14 10 25 10 19 0 34 25 24 41 -3 5 -1 9 5 9 5 0 13 -9 16 -20 9 -28 45
-27 45 1 0 18 2 20 16 8 10 -9 14 -22 10 -41 -8 -40 2 -59 28 -52 15 3 28 -3
44 -20 12 -15 27 -26 33 -26 5 0 7 -4 4 -10 -3 -5 -2 -10 3 -10 6 0 13 -7 16
-16 3 -8 2 -13 -2 -10 -5 3 -27 -1 -50 -7 -43 -13 -60 -23 -39 -24 6 0 29 -3
49 -7 45 -7 58 10 58 78 0 58 -8 76 -32 76 -17 0 -19 6 -18 48 3 95 2 102 -22
101 -13 -1 -41 -5 -63 -11z m52 -111 c17 -11 17 -27 -2 -27 -16 0 -35 30 -35
57 1 16 2 16 12 -2 6 -11 17 -24 25 -28z m-227 -17 c0 -5 -4 -10 -10 -10 -5 0
-10 5 -10 10 0 6 5 10 10 10 6 0 10 -4 10 -10z m-8 -55 c-2 -14 -9 -25 -15
-25 -6 0 -20 -8 -31 -17 -21 -18 -21 -18 -2 5 11 12 16 25 13 29 -9 8 12 33
28 33 8 0 10 -9 7 -25z m-542 -60 c0 -8 -4 -15 -8 -15 -5 0 -9 7 -9 15 0 8 4
15 9 15 4 0 8 -7 8 -15z m444 -127 c-3 -4 -12 -8 -20 -8 -8 0 -13 4 -10 8 3 5
12 9 20 9 8 0 13 -4 10 -9z m-6 -210 c0 -32 9 -90 16 -108 5 -12 -2 -15 -28
-16 -27 0 -32 2 -21 10 19 14 27 82 12 94 -7 6 -21 12 -32 14 -16 4 -13 7 15
15 19 6 36 12 36 12 1 1 2 -9 2 -21z m227 -178 c21 -5 11 -7 -37 -6 -38 0 -68
4 -68 9 0 9 64 7 105 -3z m-195 -32 c0 -10 -36 7 -45 22 -4 6 5 5 19 -2 14 -6
26 -15 26 -20z m50 28 c0 -3 -4 -8 -10 -11 -5 -3 -10 -1 -10 4 0 6 5 11 10 11
6 0 10 -2 10 -4z m-33 -58 c-3 -7 -5 -2 -5 12 0 14 2 19 5 13 2 -7 2 -19 0
-25z m13 -47 c0 -6 -4 -13 -10 -16 -5 -3 -10 1 -10 9 0 9 5 16 10 16 6 0 10
-4 10 -9z m75 -142 c11 -17 2 -18 -19 -3 -17 12 -17 14 -4 14 9 0 20 -5 23
-11z m219 -37 c-7 -4 -14 -18 -17 -32 -4 -21 -4 -20 -6 8 -1 24 3 32 17 32 11
0 13 -3 6 -8z m35 -97 c31 -30 13 -39 -32 -16 -21 10 -49 22 -64 27 l-28 7 30
7 c40 10 65 3 94 -25z m145 -127 c6 -4 26 -8 44 -8 19 0 40 -8 52 -20 17 -17
20 -29 14 -73 -3 -29 -7 -58 -9 -64 -3 -7 1 -13 7 -13 7 0 6 -5 -2 -15 -18
-22 -50 -19 -50 5 0 11 -4 20 -10 20 -5 0 -10 5 -10 10 0 6 11 10 25 10 14 0
25 3 26 8 0 4 2 15 4 24 2 9 -3 25 -9 34 -11 14 -18 15 -44 6 -17 -6 -34 -7
-37 -2 -3 4 6 11 20 14 52 13 22 24 -60 22 -61 -1 -86 2 -89 11 -3 7 0 13 7
14 23 1 72 10 85 14 6 2 13 17 13 32 2 27 2 27 6 3 3 -14 10 -28 17 -32z m256
-158 c0 -5 -5 -10 -11 -10 -5 0 -7 5 -4 10 3 6 8 10 11 10 2 0 4 -4 4 -10z
m-1135 -125 c21 -39 22 -44 6 -25 -11 14 -32 48 -46 75 -21 39 -22 44 -6 25
11 -14 32 -47 46 -75z m1162 -74 c46 -33 81 -76 112 -138 14 -29 28 -43 41
-43 14 0 20 -7 20 -21 0 -16 -4 -19 -21 -14 -18 6 -21 4 -17 -13 13 -49 -10
-259 -41 -365 -27 -94 -74 -207 -85 -207 -5 0 1 62 13 140 5 30 9 69 9 85 0
17 1 59 2 95 2 71 -9 162 -19 156 -3 -2 -7 6 -8 17 -1 12 -4 36 -8 52 -10 54
-16 90 -16 113 -1 12 -6 22 -13 22 -7 0 -6 4 3 9 8 5 9 11 3 15 -6 3 -8 15 -5
26 6 24 -21 38 -42 20 -11 -9 -21 -9 -45 1 -35 16 -39 42 -8 63 35 25 80 20
125 -13z m-347 -117 c76 -64 127 -239 117 -403 -4 -61 -11 -99 -20 -108 -11
-11 -14 -11 -14 -1 -1 28 -24 98 -33 98 -6 0 -10 9 -10 19 0 11 -3 21 -8 23
-4 2 -34 57 -66 123 -32 66 -62 122 -67 125 -12 8 -32 61 -36 96 -3 24 1 33
19 42 40 19 84 14 118 -14z m795 -24 c3 -5 1 -10 -4 -10 -6 0 -11 5 -11 10 0
6 2 10 4 10 3 0 8 -4 11 -10z m-1220 -82 l40 0 -33 -9 c-44 -13 -39 -38 13
-56 22 -7 43 -17 48 -22 14 -14 -3 -91 -25 -113 -19 -19 -21 -19 -36 -4 -12
12 -17 34 -17 76 0 57 -7 75 -18 48 -3 -7 -6 -2 -7 12 l-2 25 -12 -28 c-12
-27 -13 -27 -29 -9 -9 10 -17 25 -17 32 0 8 -9 24 -21 36 l-20 22 48 -5 c26
-3 66 -5 88 -5z m72 6 c-3 -3 -12 -4 -19 -1 -8 3 -5 6 6 6 11 1 17 -2 13 -5z
m3 -74 c8 -5 11 -10 5 -10 -5 0 -17 5 -25 10 -8 5 -10 10 -5 10 6 0 17 -5 25
-10z m-244 -989 c-7 -11 -46 -21 -46 -12 0 13 13 21 32 21 11 0 17 -4 14 -9z"/>
<path d="M6790 5800 c0 -5 5 -10 11 -10 5 0 7 5 4 10 -3 6 -8 10 -11 10 -2 0
-4 -4 -4 -10z"/>
<path d="M7706 5785 c-3 -9 -20 -18 -38 -22 -27 -5 -29 -7 -13 -13 34 -12 92
28 66 45 -5 3 -12 -2 -15 -10z"/>
<path d="M4977 5783 c-12 -11 -7 -50 7 -62 12 -10 17 -8 26 9 19 35 -8 79 -33
53z"/>
<path d="M7457 5752 c-28 -19 -27 -32 4 -32 10 0 23 9 29 19 19 37 10 40 -33
13z"/>
<path d="M6655 5721 c-10 -17 12 -21 25 -6 10 12 10 15 -3 15 -9 0 -18 -4 -22
-9z"/>
<path d="M6785 5690 c-3 -5 -1 -10 4 -10 6 0 11 5 11 10 0 6 -2 10 -4 10 -3 0
-8 -4 -11 -10z"/>
<path d="M6627 5643 c-15 -7 -27 -16 -27 -19 0 -2 27 -3 59 -2 63 3 69 10 23
26 -21 7 -35 6 -55 -5z"/>
<path d="M6560 5551 c0 -13 30 -22 51 -16 31 10 21 25 -16 25 -19 0 -35 -4
-35 -9z"/>
<path d="M6668 5553 c6 -2 18 -2 25 0 6 3 1 5 -13 5 -14 0 -19 -2 -12 -5z"/>
<path d="M6507 5474 c-64 -16 -70 -24 -18 -24 25 0 49 6 58 15 22 22 15 24
-40 9z"/>
<path d="M6418 5383 c7 -3 16 -2 19 1 4 3 -2 6 -13 5 -11 0 -14 -3 -6 -6z"/>
<path d="M7570 5136 c0 -7 9 -12 20 -13 11 -1 18 2 15 7 -3 4 1 10 7 13 7 2 1
4 -14 4 -16 0 -28 -5 -28 -11z"/>
<path d="M8365 4960 c-9 -15 -5 -19 33 -26 26 -5 30 -3 28 12 -3 22 -50 32
-61 14z"/>
<path d="M7767 4883 c-4 -3 -7 -11 -7 -17 0 -6 5 -5 12 2 6 6 9 14 7 17 -3 3
-9 2 -12 -2z"/>
<path d="M7798 4863 c6 -2 18 -2 25 0 6 3 1 5 -13 5 -14 0 -19 -2 -12 -5z"/>
<path d="M5498 4465 c5 -11 25 -33 43 -50 l33 -30 -22 35 c-24 40 -74 81 -54
45z"/>
<path d="M4267 4420 c-28 -33 -42 -68 -32 -78 9 -9 75 66 75 84 0 26 -19 23
-43 -6z"/>
<path d="M4062 4336 c-33 -38 -72 -106 -72 -127 0 -22 56 40 85 92 34 64 28
82 -13 35z"/>
<path d="M5787 4271 c68 -79 94 -101 72 -58 -16 28 -119 137 -131 137 -5 0 22
-36 59 -79z"/>
<path d="M4357 4243 c-4 -3 -7 -11 -7 -17 0 -6 5 -5 12 2 6 6 9 14 7 17 -3 3
-9 2 -12 -2z"/>
<path d="M3794 4115 c-9 -14 -14 -28 -11 -31 3 -3 13 8 22 25 19 37 12 41 -11
6z"/>
<path d="M4149 4085 c-11 -25 -19 -55 -17 -66 3 -20 3 -20 26 1 16 15 22 32
22 65 0 25 -3 45 -6 45 -3 0 -14 -20 -25 -45z"/>
<path d="M5800 4060 c0 -21 30 -65 64 -91 l28 -22 -16 29 c-24 44 -75 101 -76
84z"/>
<path d="M3641 3781 c-28 -40 -73 -141 -68 -154 4 -12 68 97 87 147 15 40 6
43 -19 7z"/>
<path d="M6060 3762 c0 -24 65 -155 85 -172 22 -19 19 0 -16 90 -17 46 -39 85
-50 90 -16 9 -19 7 -19 -8z"/>
<path d="M5870 3745 c0 -44 59 -139 76 -122 7 7 -29 81 -56 117 -18 23 -20 23
-20 5z"/>
<path d="M5335 3708 c4 -22 13 -54 19 -70 11 -24 15 -27 24 -15 10 11 7 26
-13 71 -14 31 -27 56 -31 56 -3 0 -3 -19 1 -42z"/>
<path d="M5830 3694 c0 -14 51 -86 57 -81 6 7 -22 61 -41 76 -9 8 -16 9 -16 5z"/>
<path d="M4477 3643 c-20 -63 -32 -144 -17 -122 11 19 42 160 36 166 -2 2 -11
-17 -19 -44z"/>
<path d="M6275 3303 c5 -68 35 -152 42 -121 6 23 -14 115 -33 153 -14 29 -14
28 -9 -32z"/>
<path d="M5994 3230 c2 -41 10 -100 17 -130 12 -53 12 -54 21 -25 10 36 -6
152 -27 198 -14 31 -15 30 -11 -43z"/>
<path d="M6440 2835 c-12 -91 -20 -168 -17 -171 10 -10 38 140 44 238 3 54 4
98 1 98 -2 0 -15 -74 -28 -165z"/>
<path d="M6286 2865 c-10 -115 -31 -211 -68 -304 -35 -90 -31 -104 6 -21 65
143 101 321 79 385 -9 26 -11 19 -17 -60z"/>
<path d="M5925 2889 c-3 -30 -5 -79 -3 -109 3 -53 4 -54 16 -27 14 33 16 155
3 176 -6 10 -11 -3 -16 -40z"/>
<path d="M5986 2733 c-4 -26 -9 -57 -12 -68 -5 -19 -4 -19 9 -2 18 22 31 97
19 109 -6 6 -12 -10 -16 -39z"/>
<path d="M5580 2699 c-7 -24 -9 -66 -5 -99 15 -129 47 -86 35 48 -4 45 -10 85
-13 88 -3 3 -11 -13 -17 -37z"/>
<path d="M6058 2470 c-66 -173 -72 -199 -33 -135 32 51 57 128 53 157 -3 19
-7 14 -20 -22z"/>
<path d="M5197 2381 c-28 -51 -36 -106 -15 -99 26 9 72 148 49 148 -4 0 -20
-22 -34 -49z"/>
<path d="M6376 2385 c-9 -26 -7 -32 5 -12 6 10 9 21 6 23 -2 3 -7 -2 -11 -11z"/>
<path d="M6274 2338 c-9 -29 -28 -76 -41 -106 -30 -68 -29 -80 2 -22 26 48 68
170 61 177 -2 2 -12 -20 -22 -49z"/>
<path d="M6042 2250 c-17 -56 -116 -254 -149 -298 -14 -18 -23 -35 -20 -38 7
-7 82 81 111 131 34 57 78 191 74 223 -3 23 -5 21 -16 -18z"/>
<path d="M5765 2244 c-8 -20 -29 -60 -46 -87 -36 -59 -33 -73 4 -20 31 46 71
133 63 140 -2 3 -12 -12 -21 -33z"/>
<path d="M6331 2173 c-19 -27 -25 -40 -15 -31 18 16 59 78 51 78 -2 0 -18 -21
-36 -47z"/>
<path d="M5402 2087 c-49 -126 -48 -119 -21 -115 39 5 69 62 69 129 0 32 -3
60 -8 63 -4 2 -22 -32 -40 -77z"/>
<path d="M6141 2038 c-44 -60 -47 -67 -19 -40 29 28 86 112 76 112 -2 0 -28
-33 -57 -72z"/>
<path d="M5663 1932 c-23 -32 -64 -84 -93 -115 -64 -70 -51 -74 23 -8 47 44
126 165 115 177 -2 2 -23 -22 -45 -54z"/>
<path d="M6133 1913 c-61 -76 -69 -92 -18 -38 44 47 71 85 61 85 -2 0 -22 -21
-43 -47z"/>
<path d="M5098 1892 c-65 -72 -99 -162 -62 -162 41 0 111 124 102 181 -3 20
-6 19 -40 -19z"/>
<path d="M5861 1802 c-10 -21 -37 -60 -60 -87 -41 -49 -48 -73 -12 -41 28 25
68 85 86 129 20 48 11 48 -14 -1z"/>
<path d="M5420 1785 c-43 -44 -49 -62 -16 -49 18 7 82 94 69 94 -5 0 -29 -20
-53 -45z"/>
<path d="M6029 1783 l-34 -38 38 34 c34 33 42 41 34 41 -2 0 -19 -17 -38 -37z"/>
<path d="M5783 1604 c-56 -37 -62 -44 -39 -44 12 0 108 79 96 79 -3 1 -29 -15
-57 -35z"/>
<path d="M5745 1029 c-16 -5 -36 -17 -42 -28 -13 -21 -12 -23 67 -321 l9 -35
123 7 c126 8 224 3 233 -12 5 -8 83 -26 97 -22 4 1 35 -5 69 -13 80 -18 99 -9
99 47 0 39 1 40 28 34 73 -17 95 -19 89 -9 -8 12 -109 63 -125 63 -12 0 -24
51 -27 110 -1 28 -8 39 -36 57 -19 12 -41 29 -49 36 -17 15 -119 53 -165 61
-16 3 -59 8 -95 11 -36 4 -73 8 -82 11 -32 9 -163 11 -193 3z"/>
<path d="M4248 978 c-16 -5 -28 -17 -28 -27 0 -9 -4 -21 -9 -26 -6 -6 -12 -22
-15 -37 -2 -15 -8 -33 -12 -40 -8 -13 -7 -255 1 -268 3 -4 15 -8 27 -8 13 0
64 -13 114 -30 101 -34 254 -53 277 -34 7 6 39 9 75 7 34 -2 62 0 62 5 0 25
-27 58 -71 90 -33 24 -50 44 -55 65 -10 45 -35 119 -43 125 -4 3 -19 22 -33
42 -13 21 -28 35 -31 31 -4 -3 -7 -1 -7 5 0 7 -21 22 -47 35 -27 13 -70 36
-97 50 -53 29 -66 31 -108 15z m392 -432 c0 -2 -7 -6 -15 -10 -8 -3 -15 -1
-15 4 0 6 7 10 15 10 8 0 15 -2 15 -4z"/>
<path d="M4902 874 c-29 -14 -57 -34 -62 -44 -18 -34 -41 -50 -70 -50 -41 0
-44 -14 -15 -60 26 -42 37 -44 56 -9 9 19 9 19 -10 10 -29 -16 -33 -13 -12 8
41 41 90 52 134 30 19 -9 19 -8 -3 13 l-26 23 24 35 c12 19 29 43 37 53 20 23
8 22 -53 -9z"/>
<path d="M3144 836 c-10 -8 -17 -16 -14 -18 14 -9 100 -47 100 -44 0 3 -5 17
-12 33 -6 15 -11 31 -10 36 3 12 -43 8 -64 -7z"/>
</g>
</svg>
